<?xml version="1.0" encoding="UTF-8" standalone="no"?>
<!-- Created with Inkscape (http://www.inkscape.org/) -->

<svg
   width="544.38873"
   height="544.38873"
   viewBox="0 0 144.03618 144.03618"
   version="1.1"
   id="svg1"
   xml:space="preserve"
   inkscape:version="1.2.2 (b0a8486541, 2022-12-01)"
   sodipodi:docname="logo-square-small.svg"
   inkscape:export-filename="wakepy-logo-square-small.png"
   inkscape:export-xdpi="96"
   inkscape:export-ydpi="96"
   xmlns:inkscape="http://www.inkscape.org/namespaces/inkscape"
   xmlns:sodipodi="http://sodipodi.sourceforge.net/DTD/sodipodi-0.dtd"
   xmlns:xlink="http://www.w3.org/1999/xlink"
   xmlns="http://www.w3.org/2000/svg"
   xmlns:svg="http://www.w3.org/2000/svg"><sodipodi:namedview
     id="namedview1"
     pagecolor="#ffffff"
     bordercolor="#000000"
     borderopacity="0.25"
     inkscape:showpageshadow="2"
     inkscape:pageopacity="0.0"
     inkscape:pagecheckerboard="0"
     inkscape:deskcolor="#d1d1d1"
     inkscape:document-units="mm"
     inkscape:zoom="0.20221701"
     inkscape:cx="2193.1884"
     inkscape:cy="937.11207"
     inkscape:window-width="1920"
     inkscape:window-height="1048"
     inkscape:window-x="0"
     inkscape:window-y="0"
     inkscape:window-maximized="1"
     inkscape:current-layer="layer1"
     showborder="true"
     showguides="false"
     showgrid="false" /><defs
     id="defs1"><linearGradient
       inkscape:collect="always"
       id="linearGradient1806"><stop
         style="stop-color:#132225;stop-opacity:1;"
         offset="0"
         id="stop1802" /><stop
         style="stop-color:#3f3f3e;stop-opacity:1;"
         offset="0.88752794"
         id="stop1804" /></linearGradient><linearGradient
       inkscape:collect="always"
       xlink:href="#linearGradient1806"
       id="linearGradient1808"
       x1="230.66652"
       y1="314.81738"
       x2="231.28818"
       y2="381.36038"
       gradientUnits="userSpaceOnUse"
       gradientTransform="matrix(0.89181645,0,0,0.89181645,222.94975,59.188288)" /></defs><g
     inkscape:groupmode="layer"
     id="layer4"
     inkscape:label="sphere-bg"
     transform="translate(-359.2931,-238.43296)"
     style="display:inline"><circle
       style="display:inline;fill:url(#linearGradient1808);fill-opacity:1;stroke:none;stroke-width:5.35091"
       id="path1800"
       cx="431.81339"
       cy="311.28925"
       inkscape:transform-center-x="2.0268575"
       inkscape:transform-center-y="-4.4033706"
       r="70" /></g><g
     inkscape:groupmode="layer"
     id="layer2"
     inkscape:label="shade"
     style="display:inline"
     transform="translate(-0.73608845,-0.47523051)" /><g
     inkscape:groupmode="layer"
     id="layer3"
     inkscape:label="edge"><path
       id="path1800-3"
       style="display:inline;fill:#d5ba93;fill-opacity:1;stroke:none;stroke-width:5.50517"
       inkscape:transform-center-x="2.0852836"
       inkscape:transform-center-y="-4.5303113"
       d="M 72.245837,-0.07836089 A 72.018089,72.018089 0 0 0 0.22749294,71.93946 72.018089,72.018089 0 0 0 72.245837,143.95781 72.018089,72.018089 0 0 0 144.26366,71.93946 72.018089,72.018089 0 0 0 72.245837,-0.07836089 Z M 72.083567,3.9565291 A 68,68 0 0 1 140.08356,71.95652 68,68 0 0 1 72.083567,139.9565 68,68 0 0 1 4.083593,71.95652 68,68 0 0 1 72.083567,3.9565291 Z" /></g><g
     inkscape:label="mug"
     inkscape:groupmode="layer"
     id="layer1"
     transform="matrix(1.0719649,0,0,1.0719649,-465.73577,-329.46067)"
     style="display:inline"><path
       id="path14-6"
       style="display:inline;fill:#836434;fill-opacity:1;stroke:none;stroke-width:4.74798;stroke-dasharray:none;stroke-dashoffset:1.57133;stroke-opacity:1;paint-order:stroke markers fill"
       d="m 475.03704,347.78187 0.14125,1.20711 -0.31045,-9.6e-4 8.5158,73.83078 c 12.36839,1.35388 24.85843,1.56793 37.29117,-0.42181 l 9.08995,-74.41843 z"
       sodipodi:nodetypes="ccccccc" /><path
       id="path15-1"
       style="display:inline;fill:#d5ba93;fill-opacity:1;stroke:none;stroke-width:4.74798;stroke-dasharray:none;stroke-dashoffset:1.57133;stroke-opacity:1;paint-order:stroke markers fill"
       d="m 523.27518,339.44351 c -15.94956,0.12376 -28.96724,-6.09352 -44.5204,-6.06257 l -4.21764,6.6121 -2.83844,0.054 0.0839,9.7446 49.00696,-0.0709 4.8e-4,-0.0651 c 3.37003,0.0115 8.6664,-0.0958 12.19739,-0.094 l -0.0125,-9.44379 -2.74636,-0.0202 z"
       sodipodi:nodetypes="ccccccccccc" /><path
       id="path17-9"
       style="display:inline;fill:#4d3b25;fill-opacity:1;stroke:none;stroke-width:4.74798;stroke-linecap:round;stroke-linejoin:round;stroke-dasharray:none;stroke-dashoffset:1.57133;stroke-opacity:1;paint-order:stroke markers fill"
       d="m 474.74275,369.23824 3.56911,28.56053 c 18.21096,-0.0935 31.04382,-0.34757 47.96907,-0.34757 l 3.06601,-28.18281 c -18.09535,0.0916 -35.70338,0.1686 -54.60419,-0.0301 z"
       sodipodi:nodetypes="ccccc" /><path
       style="display:inline;fill:#dfcaac;fill-opacity:1;stroke:none;stroke-width:4.97494"
       d="m 474.64211,339.98127 55.64114,0.10695 -4.50216,-6.39818 -46.97176,-0.30343 z"
       id="path16666"
       sodipodi:nodetypes="ccccc" /><text
       xml:space="preserve"
       style="font-size:2.96185px;opacity:1;fill:#d5ba93;fill-opacity:1;stroke:none;stroke-width:5.59721"
       x="565.87292"
       y="368.20609"
       id="text39601"><tspan
         sodipodi:role="line"
         id="tspan39599"
         style="stroke-width:5.5972"
         x="565.87292"
         y="368.20609">ttb</tspan></text><path
       style="opacity:1;fill:#6e5435;fill-opacity:1;stroke:none;stroke-width:2.33509"
       d="m 493.09226,391.08367 c 0.91766,0.57615 3.47662,0.49231 4.31044,0.25049 0.80773,-0.23425 1.49746,-1.40929 2.11723,-2.22382 0.71436,-0.93882 1.81968,-3.03547 1.81968,-3.03547 0,0 0.8247,2.03999 1.31976,3.0211 0.34405,0.6818 0.51881,1.80509 1.14391,1.98509 0.9143,0.26327 5.15817,0.49717 5.72463,-0.0302 1.31893,-1.22794 3.24091,-4.73157 4.13819,-7.41661 0.84529,-2.52947 1.08544,-7.92696 1.08544,-7.92696 l -5.14574,-0.0671 c 0,0 0.26561,3.96162 -0.2161,5.8539 -0.41862,1.64443 -2.26752,4.55776 -2.26752,4.55776 0,0 -1.07503,-3.05924 -1.44084,-4.63541 -0.34428,-1.48338 -0.70411,-4.51386 -0.70411,-4.51386 l -5.32158,-0.0359 c 0,0 0.0929,3.57842 -0.43236,5.25604 -0.41293,1.31878 -2.07726,3.58784 -2.07726,3.58784 l -2.12164,-9.92162 -7.36178,-0.024 c 0,0 1.7235,6.84405 2.86131,10.18027 0.59443,1.74563 1.58347,4.50515 2.56834,5.13848 0.73543,0.47293 -2e-5,5e-5 0,6e-5 z"
       id="path39719"
       sodipodi:nodetypes="ssacassaccacaccaccccss" /></g></svg>
